<?xml version="1.0" encoding="utf-8"?>
<!-- Generator: Adobe Illustrator 18.1.0, SVG Export Plug-In . SVG Version: 6.00 Build 0)  -->
<!DOCTYPE svg PUBLIC "-//W3C//DTD SVG 1.1//EN" "http://www.w3.org/Graphics/SVG/1.1/DTD/svg11.dtd">
<svg version="1.1" id="Layer_1" xmlns="http://www.w3.org/2000/svg" xmlns:xlink="http://www.w3.org/1999/xlink" x="0px" y="0px"
	 viewBox="0 0 200 200" enable-background="new 0 0 200 200" xml:space="preserve">
<g>
	<path fill="#3A3A3A" d="M199.5,100c0,54.9-44.5,99.5-99.5,99.5c-55,0-99.5-44.6-99.5-99.5C0.5,45,45,0.5,100,0.5
		C155,0.5,199.5,45,199.5,100z"/>
	<g>
		<g>
			<path fill="#FFFFFF" d="M68.7,66.2c2.6,0,4.9,2.5,7.3,5.5C77.8,74,93.6,95,100.2,95c6.7,0,24.8-21.5,27.2-24.4
				c0.8-0.6,1.7-1.3,2.6-1.3c0.4,0,0.7,0.1,1.1,0.4c1.4,1,1.4,5.7,1.4,8.2c0,0.3,0,0.6,0,0.9l0.1,50.5c-4,0-7.8,0-11.5,0
				c-5.3,0-10.2,0-15.1,0c-4.7,0-9.2,0-13.8,0c-10,0-18.4-0.1-27-0.2c-0.1-12.7-0.2-53.5-0.2-54c0-4.1,0-7.9,2.3-8.7
				C67.6,66.2,68.2,66.2,68.7,66.2 M68.7,65.2c-0.6,0-1.2,0.1-1.9,0.3c-2.9,1-2.9,5.3-2.9,9.6c0,0,0.1,43.2,0.2,54.9
				c10.3,0.2,19.3,0.2,28,0.2c9.5,0,18.6-0.1,28.9-0.1c4,0,8.1,0,12.4,0l-0.1-51.4c0-3,0.3-8.5-1.8-9.9c-0.5-0.4-1.1-0.5-1.6-0.5
				c-1.2,0-2.3,0.8-3.2,1.6c0,0-20,24.1-26.5,24.1c0,0,0,0,0,0c-6.3,0-23.4-23-23.4-23C74.2,67.9,71.7,65.2,68.7,65.2L68.7,65.2z"/>
		</g>
	</g>
	<g>
		<g>
			<path fill="#FFFFFF" d="M62.2,80.6c4.5,0,10.8,4.6,17.5,9.5c8.1,5.9,17.3,12.7,25.5,12.7l0.2,0c2.5,0,40-12.4,44.7-14
				c0.7-0.1,1.4-0.1,2-0.1c1.7,0,2.7,0.4,3.6,1.5c0.9,1.1,2.4,5.5,2.4,21.7c0,7.6-0.3,14.9-0.5,17.4c-7,0-14.6,0-23.6,0
				c-4.8,0-9.6,0-14.3,0c-4.7,0-9.3,0-14,0c-15,0-31.4,0-49.1-0.2c-0.1-9.7,0.5-34.1,0.5-34.4c0-0.3,0-0.7,0-1.2
				c-0.1-3.9-0.2-12,4-12.8C61.5,80.7,61.8,80.6,62.2,80.6 M62.2,79.7c-0.4,0-0.8,0-1.1,0.1c-5.6,0.9-4.7,11.5-4.7,14.9
				c0,0-0.6,26.2-0.5,35.3c17.4,0.2,33.7,0.2,50.1,0.2c9.3,0,18.7,0,28.3,0c8,0,16.1,0,24.5,0c0,0,2.1-35.3-2.1-40.6
				c-1.2-1.5-2.7-1.8-4.3-1.8c-0.7,0-1.5,0.1-2.2,0.1c0,0-42.1,13.9-44.6,13.9c-0.1,0-0.1,0-0.2,0C90.5,101.9,72.7,79.7,62.2,79.7
				L62.2,79.7z"/>
		</g>
	</g>
	<g>
		<g>
			<path fill="#FFFFFF" d="M49,76.1c5.8,0,20.9,12.7,31.9,22.1c9.3,7.8,14.2,11.9,16.2,12.1c0.1,0,0.1,0,0.2,0
				c1.1,0,4.4,0,24.8-13.9c9.5-6.5,18.4-13.1,19.3-13.7c0.3-0.2,0.6-0.3,0.9-0.5c0.8-0.4,1.4-0.8,2.3-0.8c0.6,0,1.4,0.2,2.2,0.5
				c3.1,1.2,2.9,9.4,2.9,12.1c0,0.3,0,0.6,0,0.8l0,34.6c-5.8,0-11.7,0-17.7,0c-7.1,0-14.3,0-21.5,0c-7.3,0-14.6,0-21.9,0
				c-18.2,0-31.8-0.1-43.8-0.2c-0.1-10.6,0.7-45.8,0.7-46.2c0-4,0.2-6.6,3-6.9C48.8,76.1,48.9,76.1,49,76.1 M49,75.1
				c-0.1,0-0.3,0-0.4,0c-3.8,0.4-3.8,4.3-3.8,7.8c0,0-0.8,37.7-0.7,47.1c14.3,0.1,29.5,0.2,44.8,0.2c14.5,0,29.1,0,43.3,0
				c6.3,0,12.6,0,18.7,0l0-35.6c0-2.4,0.5-12.1-3.5-13.7c-1-0.4-1.9-0.6-2.6-0.6c-1.6,0-2.5,0.8-3.7,1.4c0,0-37.1,27.5-43.7,27.5
				c-0.1,0-0.1,0-0.2,0C92.5,108.9,59.1,75.1,49,75.1L49,75.1z"/>
		</g>
	</g>
	<rect x="67" y="122.8" fill="#3A3A3A" width="63.4" height="11.6"/>
</g>
</svg>
