<?xml version="1.0" encoding="utf-8"?>
<!-- Generator: Adobe Illustrator 18.1.0, SVG Export Plug-In . SVG Version: 6.00 Build 0)  -->
<!DOCTYPE svg PUBLIC "-//W3C//DTD SVG 1.1//EN" "http://www.w3.org/Graphics/SVG/1.1/DTD/svg11.dtd">
<svg version="1.1" id="Layer_1" xmlns="http://www.w3.org/2000/svg" xmlns:xlink="http://www.w3.org/1999/xlink" x="0px" y="0px"
	 viewBox="0 0 100 100" enable-background="new 0 0 100 100" xml:space="preserve">
<g>
	<g>
		<g>
			<path fill="#4DBA8C" d="M24.7,23.5c1.2,0,2.8,1.8,4.2,3.5c0.4,0.5,3.5,4.7,7.3,8.9c7.6,8.6,10.8,9.7,12.8,9.7
				c2,0,5.3-1.2,13.9-10c4-4.1,7.4-8.2,8.2-9.2c0.1-0.1,0.3-0.2,0.4-0.3c0.3,1.1,0.3,3.5,0.3,4.5c0,0.3,0,0.5,0,0.7l0.1,36.8
				c-2.4,0-4.7,0-6.9,0c-4,0-7.8,0-11.5,0c-3.6,0-7,0-10.6,0c-7,0-13,0-19.1-0.1c-0.1-11.3-0.1-39.3-0.1-39.6c0-1.4,0-4.4,0.5-4.9
				C24.4,23.6,24.6,23.5,24.7,23.5 M24.7,20.9c-0.5,0-0.9,0.1-1.4,0.3c-2.3,0.8-2.3,4.1-2.3,7.4c0,0,0.1,33.2,0.2,42.1
				c8,0.1,14.9,0.2,21.6,0.2c7.2,0,14.2,0,22.1,0c3,0,6.1,0,9.5,0l-0.1-39.4c0-2.3,0.2-6.6-1.3-7.6c-0.4-0.3-0.8-0.4-1.2-0.4
				c-0.9,0-1.8,0.6-2.5,1.2c0,0-15.3,18.5-20.4,18.5c0,0,0,0,0,0c-4.9,0-18-17.6-18-17.6C29,23,27.1,20.9,24.7,20.9L24.7,20.9z"/>
		</g>
	</g>
	<g>
		<g>
			<path fill="#4DBA8C" d="M20,38.6c3,0,7.9,2.8,12.6,5.4c6.3,3.6,13.5,7.7,20.2,7.7l0.2,0c1.9,0,19.8-5.8,34.7-10.7
				c0.4,0,0.8-0.1,1.2-0.1c0.9,0,1.1,0.2,1.3,0.4c1.4,2,1.8,15.1,1.2,27c-5.4,0-10.6,0-15.8,0c-3.8,0-7.5,0-11.2,0
				c-3.7,0-7.3,0-10.9,0c-11,0-23,0-35.9-0.1c0-7.6,0.4-20.4,0.4-20.5l0,0l0,0c0-0.3,0-0.6,0-1c-0.1-6.9,1-7.8,1.5-7.9
				C19.5,38.7,19.8,38.6,20,38.6 M20,36.1c-0.4,0-0.7,0-1.1,0.1c-4.3,0.7-3.6,8.8-3.6,11.4c0,0-0.5,16.1-0.4,23.1
				c13.4,0.1,25.9,0.1,38.5,0.1c7.3,0,14.7,0,22.2,0c5.9,0,12,0,18.2,0c0,0,1.6-27.1-1.6-31.1c-0.9-1.1-2-1.4-3.3-1.4
				c-0.6,0-1.1,0.1-1.7,0.1c0,0-32.3,10.7-34.2,10.7c-0.1,0-0.1,0-0.2,0C41.6,49.1,28.1,36.1,20,36.1L20,36.1z"/>
		</g>
	</g>
	<g>
		<g>
			<path fill="#4DBA8C" d="M9.6,31.1c0.3,0,2.4,0.3,9,6.4c4.4,4.1,9.5,9.4,13.9,14.1c9.3,9.9,11.7,12.2,13.9,12.4c0.1,0,0.2,0,0.3,0
				c1.4,0,4.1,0,20.4-14.5c6.9-6.1,13.3-12.3,14.7-13.7c0.2-0.1,0.3-0.2,0.4-0.3c0.5-0.3,0.7-0.4,0.9-0.4c0.1,0,0.5,0,1,0.2
				c0.1,0.1,1.2,1.1,1.1,7.5c0,0.2,0,0.5,0,0.6l0,24.7c-3.8,0-7.7,0-11.7,0c-5.4,0-10.8,0-16.3,0c-5.5,0-11.1,0-16.6,0
				c-9.1,0-20.7,0-32.1-0.1C8.4,58.5,9,34.9,9,34.6l0,0v0c0-1,0-3,0.4-3.4C9.3,31.2,9.4,31.1,9.6,31.1L9.6,31.1 M9.6,28.6
				c-0.1,0-0.2,0-0.2,0c-2.9,0.3-2.9,3.3-2.9,6c0,0-0.6,29-0.6,36.1c11.1,0.1,22.8,0.1,34.7,0.1c11,0,22.2,0,33,0
				c4.8,0,9.6,0,14.3,0l0-27.3c0-1.8,0.4-9.3-2.7-10.5c-0.8-0.3-1.4-0.4-2-0.4c-1.2,0-1.9,0.6-2.9,1.1c0,0-28.6,27.8-33.5,27.8
				c0,0-0.1,0-0.1,0C43,61.1,17.3,28.6,9.6,28.6L9.6,28.6z"/>
		</g>
	</g>
	<rect x="23.8" y="66.6" fill-rule="evenodd" clip-rule="evenodd" fill="#FFFFFF" width="48" height="12"/>
</g>
</svg>
