<?xml version="1.0" encoding="utf-8"?>
<!-- Generator: Adobe Illustrator 18.1.0, SVG Export Plug-In . SVG Version: 6.00 Build 0)  -->
<!DOCTYPE svg PUBLIC "-//W3C//DTD SVG 1.1//EN" "http://www.w3.org/Graphics/SVG/1.1/DTD/svg11.dtd">
<svg version="1.1" id="Layer_1" xmlns="http://www.w3.org/2000/svg" xmlns:xlink="http://www.w3.org/1999/xlink" x="0px" y="0px"
	 viewBox="0 0 117.2 117.2" enable-background="new 0 0 117.2 117.2" xml:space="preserve">
<circle fill="#4DBB8D" cx="58.6" cy="58.6" r="57.3"/>
<g>
	<g>
		<path fill="#FFFFFF" d="M40.8,40.3c1.1,0,2.3,1.3,3.5,2.8c0.3,0.4,2.6,3.5,5.4,6.7c5.6,6.3,7.9,7.1,9.3,7.1
			c4.1,0,13.4-10.8,16.3-14.3c0.3-0.2,0.6-0.5,0.8-0.5c0,0,0,0,0,0c0.4,0.6,0.4,3.1,0.4,3.9l0,0.5l0.1,28.1c-1.9,0-3.8,0-5.6,0
			c-3,0-5.9,0-8.7,0c-2.7,0-5.3,0-7.9,0c-5.4,0-10.1,0-14.7-0.1c0-8.2-0.1-29.9-0.1-30.2c0-1.5,0-3.9,0.7-4.1
			C40.4,40.3,40.6,40.3,40.8,40.3 M40.8,38.8c-0.3,0-0.7,0.1-1.1,0.2c-1.7,0.6-1.7,3-1.7,5.5c0,0,0.1,24.9,0.1,31.6
			c6,0.1,11.2,0.1,16.2,0.1c5.4,0,10.7,0,16.6,0c2.3,0,4.6,0,7.1,0l-0.1-29.6c0-1.7,0.1-4.9-1-5.7c-0.3-0.2-0.6-0.3-0.9-0.3
			c-0.7,0-1.3,0.5-1.9,0.9c0,0-11.5,13.9-15.3,13.9c0,0,0,0,0,0c-3.7,0-13.5-13.2-13.5-13.2C44,40.3,42.6,38.8,40.8,38.8L40.8,38.8z
			"/>
	</g>
</g>
<g>
	<g>
		<path fill="#FFFFFF" d="M37.1,48.6c2.3,0,6,2.7,9.5,5.3c4.8,3.5,10.2,7.5,15.3,7.5l0.1,0c1.4,0,16.8-5,26-8.1c0.4,0,0.7-0.1,1-0.1
			c0.8,0,1,0.2,1.3,0.5c1.1,1.4,1.5,10.6,1,20.9c-4.2,0-8.3,0-12.3,0l-8.4,0l-8.2,0c-8.4,0-17.5,0-27.4-0.1c0-6.1,0-18.7,0-18.9
			l0-0.3c0-5.3,0.9-6.6,1.8-6.8C36.8,48.6,36.9,48.6,37.1,48.6 M37.1,47.1c-0.2,0-0.4,0-0.7,0.1c-3.2,0.5-3,6.6-3,8.6
			c0,0-0.1,15.1,0,20.4c10.1,0.1,19.5,0.1,28.9,0.1c5.5,0,11,0,16.6,0c4.5,0,9,0,13.7,0c0,0,1.2-20.3-1.2-23.4c-0.7-0.8-1.5-1-2.5-1
			c-0.4,0-0.9,0-1.3,0.1c0,0-24.3,8-25.7,8c0,0-0.1,0-0.1,0C53.4,59.9,43.2,47.1,37.1,47.1L37.1,47.1z"/>
	</g>
</g>
<g>
	<g>
		<path fill="#FFFFFF" d="M29.5,46c3,0,12.2,7.8,17.8,12.5c6.3,5.3,8.5,7.1,9.9,7.2c0.1,0,0.1,0,0.2,0c4,0,20.7-12.2,26-16.1
			c0.2-0.1,0.3-0.2,0.5-0.3c0.4-0.3,0.6-0.3,0.9-0.3c0.2,0,0.6,0.1,0.9,0.2c0.2,0.1,1.1,0.7,1.1,6.1c0,0.2,0,0.3,0,0.5l0,19
			c-3,0-6.1,0-9.2,0c-4,0-8.1,0-12.3,0c-4.2,0-8.3,0-12.5,0c-6.9,0-15.9,0-24.6-0.1c0-7,0.4-25.4,0.4-25.7
			C28.5,46.5,28.8,46,29.5,46C29.4,46,29.4,46,29.5,46 M29.5,44.5c-0.1,0-0.2,0-0.2,0C27,44.7,27,47,27,49c0,0-0.5,21.7-0.4,27.1
			c8.3,0.1,17.2,0.1,26.1,0.1c8.3,0,16.6,0,24.7,0c3.6,0,7.2,0,10.7,0l0-20.5c0-1.4,0.3-7-2-7.9c-0.6-0.2-1.1-0.3-1.5-0.3
			c-0.9,0-1.4,0.5-2.1,0.8c0,0-21.4,15.8-25.2,15.8c0,0-0.1,0-0.1,0C54.5,63.9,35.3,44.5,29.5,44.5L29.5,44.5z"/>
	</g>
</g>
<rect x="39.7" y="73.6" fill="#4DBB8D" width="36.9" height="3.6"/>
</svg>
