<?xml version="1.0" encoding="UTF-8"?>
<svg width="226px" height="119px" viewBox="0 0 226 119" version="1.1" xmlns="http://www.w3.org/2000/svg" xmlns:xlink="http://www.w3.org/1999/xlink">
    <!-- Generator: Sketch 49.1 (51147) - http://www.bohemiancoding.com/sketch -->
    <title>logo_green</title>
    <desc>Created with Sketch.</desc>
    <defs></defs>
    <g id="logo_green" stroke="none" stroke-width="1" fill="none" fill-rule="evenodd">
        <path d="M175,118.969378 L175,112.989707 L174.235211,112.989707 C174.489066,112.988802 174.743975,112.988777 175,112.989707 L175,19.591484 C175.033332,17.8169519 174.692764,16.2990635 173.568721,15.1843625 C172.472454,14.1038216 170.911386,13.4817466 169.289208,13.4817466 C167.83184,13.4817466 165.663381,13.965383 163.563438,16.2684991 C162.620871,17.4209561 155.348847,26.2702439 146.506495,35.2669598 C128.542169,53.5498544 120.536832,55.6857654 116.077694,55.6983507 C104.403938,55.6983507 89.3024972,39.5837294 68.70491,13.5842271 C67.6308652,12.2286069 66.671632,11.0186169 65.851284,9.99560902 C63.4902372,7.06322618 61.3872516,5.54996304 57.0543213,5.95549543 C51.9317627,6.43493158 51.0062408,11.3886217 51.0062408,14.5763071 C51.0080926,15.3260334 50.8432823,85.6273931 51.0062408,112.989707 L50.5554043,112.989707 L50.5554043,119 C48.7423118,118.997946 46.8905104,118.99581 45,118.993592 C45,49.2780324 45,14.4202529 45,14.4202529 C45,4.69178967 51.1143799,0.137522493 57,0.00535691032 C62.8856201,-0.126808673 66.6197816,2.18910609 70.2289426,6.67667664 C79.0675908,17.6654712 103.640996,50.3046361 116.059176,50.3046361 C128.890308,50.2632843 159.293184,12.8147238 159.293184,12.8147238 C162.230141,9.53354747 165.855968,8.08803196 169.289208,8.08803196 C175.414967,8.08803196 180.925928,12.6942642 180.792598,19.7006995 L181,118.993592 C178.973104,118.984128 176.973874,118.976106 175,118.969377 Z" id="Combined-Shape" fill="#4DBC8E"></path>
        <path d="M175,119 L175,113.000804 L50.9873047,113.000804 L51,119 L0,119 L0,29.0354253 C0,22.4301607 5.42447058,17 11.7135522,17 C14.0815952,17 16.5707939,17.7708825 18.9406726,19.5344327 C27.5757689,25.9679927 93.8332447,94.4066187 103.27421,95.0755516 C115.867059,95.0755516 188.007928,26.7335094 188.007928,26.7335094 C191.300537,24.0989156 194.04455,24.0206395 196.421021,24.1173692 C202.431152,24.3620002 206.763196,29.0228144 207,35.4993005 L207,119 L175,119 Z M15.9822998,24.05377 C13.977417,22.4528045 11.9245605,22.1538518 9.34069824,23.0455829 C6.75683594,23.937314 6,27.2333608 6,29.0219513 L6,113.000804 L51,113.000804 L200.995483,113.000804 L200.995483,35.5740692 C200.826416,32.594491 199.863037,30.5832437 197.722656,29.7440032 C195.582275,28.9047628 193.285767,29.4460271 191.508593,30.8991366 C188.929446,33.3351968 172.041077,49.2160917 154.034772,64.9038188 C113.249361,100.441323 106.512371,100.441323 103.27421,100.441323 C103.057598,100.441323 102.848329,100.43238 102.644567,100.41986 C96.1003246,99.9494606 82.8117484,88.5579279 38.0153506,45.0129041 C27.7905449,35.0737068 18.3920314,25.9780208 15.9822998,24.05377 Z" id="Combined-Shape" fill="#4DBC8E"></path>
        <path d="M174.998319,118.997941 L174.998319,113 L50.9931317,113 L50.9931317,118.988579 C44.0229093,118.992032 36.6918654,118.995839 29,119 C29.0235195,80.3493245 29.0352793,61.0239868 29.0352793,61.0239868 C29.7446155,51.8200684 35.9941769,45.0762046 45.3307538,45.0762046 C49.2199385,45.0779518 53.7588288,46.2782743 58.8786536,49.0283583 C69.9381267,54.9653249 95.832662,66.6348364 123.225263,66.6348364 C124.504767,66.6348364 125.798749,66.6086285 127.101779,66.5562126 C147.805489,65.7175593 195.013206,46.257308 204.813083,42.5392783 C207.393807,41.5591022 210.112074,41 212.707277,41 C219.960815,41 225.954756,45.3760909 225.954756,57.1964922 C225.954756,57.269043 226,119 226,119 C210.439642,118.95632 195.525151,118.999146 181.030744,118.999146 C179.012254,118.999146 177.001751,118.998712 174.998318,118.997941 Z M218.038844,48.0813789 C216.804585,46.86009 215.011108,46.2415832 212.707277,46.2415832 C210.870366,46.2415832 208.827141,46.6469323 206.798395,47.4174451 C205.67815,47.8420133 204.06384,48.4744977 202.053191,49.2624824 C185.454028,55.7725287 146.580279,71.0150528 127.328,71.7925543 C125.970676,71.8467173 124.589826,71.8764196 123.225263,71.8764196 C94.2690252,71.8764196 67.2850114,59.5377327 56.2400164,53.6077549 C52.1734748,51.4272562 48.5050814,50.319535 45.3307538,50.3177878 C36.8845812,50.3177878 35.2793197,58.5488206 34.9788988,61.3757812 C34.9475295,63.2895415 34.9475295,80.4976144 34.9788988,113 L174.998319,113 L219.996811,113 C219.996811,75.6923014 219.996811,57.0384521 219.996811,57.0384521 C219.996811,52.8764522 219.772599,49.7971238 218.038844,48.0813789 Z" id="Combined-Shape" fill="#4DBC8E"></path>
    </g>
</svg>