<?xml version="1.0" encoding="utf-8"?>
<!-- Generator: Adobe Illustrator 18.1.0, SVG Export Plug-In . SVG Version: 6.00 Build 0)  -->
<!DOCTYPE svg PUBLIC "-//W3C//DTD SVG 1.1//EN" "http://www.w3.org/Graphics/SVG/1.1/DTD/svg11.dtd">
<svg version="1.1" id="Layer_1" xmlns="http://www.w3.org/2000/svg" xmlns:xlink="http://www.w3.org/1999/xlink" x="0px" y="0px"
	 viewBox="0 0 91.8 93" enable-background="new 0 0 91.8 93" xml:space="preserve">
<g>
	<path d="M-431.1-178.2c0,74.6-60.4,135-135,135c-74.6,0-135-60.4-135-135c0-74.6,60.4-135,135-135
		C-491.6-313.2-431.1-252.8-431.1-178.2z"/>
	<g>
		<g>
			<path fill="#FFFFFF" d="M-608.7-221.9c2.6,0,5.3,3.1,8.2,6.6c0.6,0.8,6.2,8.2,12.8,15.7c13.1,14.9,18.5,16.8,21.8,16.8
				c3.3,0,9-2,23.9-17.4c7.1-7.4,13.3-14.7,14.6-16.2c0.6-0.5,1.5-1.1,1.9-1.1c0,0,0,0,0.1,0c1,1.4,0.9,7.3,0.9,9.3
				c0,0.5,0,0.9,0,1.3l0.1,66.2c-4.2,0-8.6,0-13.2,0c-7.1,0-13.8,0-20.4,0c-6.3,0-12.5,0-18.7,0c-12.8,0-23.7-0.1-34.7-0.2
				c-0.1-19.3-0.3-70.4-0.3-71c0-3.6,0-9.1,1.6-9.7C-609.5-221.8-609.1-221.9-608.7-221.9 M-608.7-225.4c-0.8,0-1.7,0.1-2.5,0.5
				c-4,1.4-4,7.2-4,13c0,0,0.2,58.6,0.3,74.5c14.1,0.2,26.3,0.3,38.2,0.3c12.8,0,25.2-0.1,39.1-0.1c5.3,0,10.9,0,16.7,0l-0.1-69.7
				c0-4,0.4-11.6-2.4-13.4c-0.7-0.5-1.5-0.7-2.1-0.7c-1.6,0-3.1,1.1-4.4,2.1c0,0-27.1,32.7-36,32.7c0,0,0,0,0,0
				c-8.6,0-31.8-31.2-31.8-31.2C-601.2-221.7-604.5-225.4-608.7-225.4L-608.7-225.4z"/>
		</g>
	</g>
	<g>
		<g>
			<path fill="#FFFFFF" d="M-617.5-202.2c5.4,0,14.1,6.4,22.4,12.5c11.3,8.3,24,17.6,36,17.6l0.3,0c3.3,0,39.6-11.8,61.2-19
				c0.8-0.1,1.6-0.2,2.3-0.2c1.8,0,2.5,0.4,3,1.1c0.5,0.6,2.8,4.7,2.8,28c0,8.6-0.3,16.9-0.5,21.3c-8.7,0-17.9,0-28.9,0
				c-6.7,0-13.3,0-19.8,0c-6.5,0-12.9,0-19.3,0c-19.8,0-41.3,0-64.6-0.2c0-14.3,0.7-44,0.7-44.4l0,0v0c0-0.5,0-1,0-1.7
				c-0.1-3.6-0.3-14.4,3.5-15C-618.1-202.2-617.8-202.2-617.5-202.2 M-617.5-205.7c-0.5,0-1,0-1.5,0.1c-7.5,1.3-6.4,15.6-6.5,20.2
				c0,0-0.8,35.6-0.7,48c23.7,0.2,45.9,0.3,68.1,0.3c12.9,0,25.9,0,39.2,0c10.5,0,21.2,0,32.2,0c0,0,2.8-47.9-2.8-55.1
				c-1.6-2-3.6-2.5-5.8-2.5c-1,0-2,0.1-3.1,0.2c0,0-57.2,18.9-60.5,18.9c-0.1,0-0.2,0-0.2,0C-579-175.6-603.2-205.7-617.5-205.7
				L-617.5-205.7z"/>
		</g>
	</g>
	<g>
		<g>
			<path fill="#FFFFFF" d="M-635.4-208.4c7.1,0,28.8,18.4,41.8,29.4c14.9,12.6,19.9,16.7,23.3,16.9c0.1,0,0.3,0,0.5,0
				c2,0,6.7,0,35-19.3c12.5-8.5,24.3-17.2,26.1-18.5c0.4-0.2,0.8-0.4,1.1-0.6c1-0.6,1.5-0.8,2.1-0.8c0.6,0,1.3,0.2,2.2,0.5
				c0.4,0.2,2.7,1.7,2.5,14.3c0,0.4,0,0.8,0,1.1l0,44.7c-6.5,0-13.7,0-21.7,0c-9.5,0-19.2,0-28.8,0c-9.8,0-19.6,0-29.4,0
				c-16.3,0-37.4,0-57.9-0.2c0-16.4,1-59.8,1-60.3l0,0v0c0-6.3,0.6-6.9,2-7.1C-635.5-208.4-635.4-208.4-635.4-208.4 M-635.4-212
				c-0.2,0-0.4,0-0.5,0c-5.2,0.5-5.2,5.9-5.2,10.6c0,0-1.1,51.2-1,63.9c19.6,0.2,40.4,0.2,61.4,0.2c19.5,0,39.1,0,58.2,0
				c8.5,0,17,0,25.2,0l0-48.3c0-3.2,0.7-16.4-4.7-18.6c-1.4-0.6-2.6-0.8-3.5-0.8c-2.2,0-3.4,1.1-5,1.9c0,0-50.3,37.3-59.2,37.3
				c-0.1,0-0.1,0-0.2,0C-576.4-166.1-621.6-212-635.4-212L-635.4-212z"/>
		</g>
	</g>
	<rect x="-611.4" y="-143.4" width="87" height="8.4"/>
</g>
<g>
	<g>
		<g>
			<path fill="#4DBB8D" d="M-608.2,94.8c2.6,0,5.3,3.1,8.2,6.6c0.6,0.8,6.2,8.2,12.8,15.7c13.1,14.9,18.5,16.8,21.8,16.8
				c3.3,0,9-2,23.9-17.4c7.1-7.4,13.3-14.7,14.6-16.2c0.6-0.5,1.5-1.1,1.9-1.1c0,0,0,0,0.1,0c1,1.4,0.9,7.3,0.9,9.3
				c0,0.5,0,0.9,0,1.3l0.1,66.2c-4.2,0-8.6,0-13.2,0c-7.1,0-13.8,0-20.4,0c-6.3,0-12.5,0-18.7,0c-12.8,0-23.7-0.1-34.7-0.2
				c-0.1-19.3-0.3-70.4-0.3-71c0-3.6,0-9.1,1.6-9.7C-609.1,94.9-608.6,94.8-608.2,94.8 M-608.2,91.2c-0.8,0-1.7,0.1-2.5,0.5
				c-4,1.4-4,7.2-4,13c0,0,0.2,58.6,0.3,74.5c14.1,0.2,26.3,0.3,38.2,0.3c12.8,0,25.2-0.1,39.1-0.1c5.3,0,10.9,0,16.7,0l-0.1-69.7
				c0-4,0.4-11.6-2.4-13.4c-0.7-0.5-1.5-0.7-2.1-0.7c-1.6,0-3.1,1.1-4.4,2.1c0,0-27.1,32.7-36,32.7c0,0,0,0,0,0
				c-8.6,0-31.8-31.2-31.8-31.2C-600.7,94.9-604,91.2-608.2,91.2L-608.2,91.2z"/>
		</g>
	</g>
	<g>
		<g>
			<path fill="#4DBB8D" d="M-617,114.4c5.4,0,14.1,6.4,22.4,12.5c11.3,8.3,24,17.6,36,17.6l0.3,0c3.3,0,39.6-11.8,61.2-19
				c0.8-0.1,1.6-0.2,2.3-0.2c1.8,0,2.5,0.4,3,1.1c0.5,0.6,2.8,4.7,2.8,28c0,8.6-0.3,16.9-0.5,21.3c-8.7,0-18,0-28.9,0c0,0,0,0-0.1,0
				c-6.7,0-13.2,0-19.8,0c-6.5,0-12.9,0-19.3,0c-19.8,0-41.3,0-64.6-0.2c0-14.3,0.7-44,0.7-44.4l0,0v0c0-0.5,0-1,0-1.7
				c-0.1-3.6-0.3-14.4,3.5-15C-617.6,114.5-617.3,114.4-617,114.4 M-617,110.9c-0.5,0-1,0-1.5,0.1c-7.5,1.3-6.4,15.6-6.5,20.2
				c0,0-0.8,35.6-0.7,48c23.7,0.2,45.9,0.3,68.1,0.3c12.9,0,25.9,0,39.2,0c10.5,0,21.2,0,32.2,0c0,0,2.8-47.9-2.8-55.1
				c-1.6-2-3.6-2.5-5.8-2.5c-1,0-2,0.1-3.1,0.2c0,0-57.2,18.9-60.5,18.9c-0.1,0-0.2,0-0.2,0C-578.5,141.1-602.7,110.9-617,110.9
				L-617,110.9z"/>
		</g>
	</g>
	<g>
		<g>
			<path fill="#4DBB8D" d="M-634.9,108.2c7.1,0,28.8,18.4,41.8,29.4c14.9,12.6,19.9,16.7,23.3,16.9c0.1,0,0.3,0,0.5,0
				c2,0,6.7,0,35-19.3c12.5-8.5,24.3-17.2,26.1-18.5c0.4-0.2,0.8-0.4,1.1-0.6c1-0.6,1.5-0.8,2.1-0.8c0.6,0,1.3,0.2,2.2,0.5
				c0.4,0.2,2.7,1.7,2.5,14.3c0,0.4,0,0.8,0,1.1l0,44.7c-6.5,0-13.7,0-21.7,0c-9.5,0-19.2,0-28.8,0c-9.8,0-19.6,0-29.4,0
				c-16.3,0-37.4,0-57.9-0.2c0-16.4,1-59.8,1-60.3l0,0v0c0-6.3,0.6-6.9,2-7.1C-635,108.2-635,108.2-634.9,108.2 M-634.9,104.7
				c-0.2,0-0.4,0-0.5,0c-5.2,0.5-5.2,5.9-5.2,10.6c0,0-1.1,51.2-1,63.9c19.6,0.2,40.4,0.2,61.4,0.2c19.5,0,39.1,0,58.2,0
				c8.5,0,17,0,25.2,0l0-48.3c0-3.2,0.7-16.4-4.7-18.6c-1.4-0.6-2.6-0.8-3.5-0.8c-2.2,0-3.4,1.1-5,1.9c0,0-50.3,37.3-59.2,37.3
				c-0.1,0-0.1,0-0.2,0C-575.9,150.5-621.1,104.7-634.9,104.7L-634.9,104.7z"/>
		</g>
	</g>
	<rect x="-610.9" y="173.2" fill="#FFFFFF" width="87" height="8.4"/>
</g>
<circle fill="#4DBB8D" cx="-300.6" cy="-104" r="57.3"/>
<g>
	<g>
		<path fill="#FFFFFF" d="M-318.7-122.6c1.1,0,2.3,1.3,3.5,2.8c0.3,0.3,2.6,3.5,5.4,6.7c5.6,6.3,7.9,7.1,9.3,7.1
			c4.1,0,13.4-10.8,16.3-14.3c0.3-0.2,0.6-0.5,0.8-0.5c0,0,0,0,0,0c0.4,0.6,0.4,3.1,0.4,3.9l0,0.5l0.1,28.1c-1.9,0-3.8,0-5.6,0
			c-3,0-5.9,0-8.7,0c-2.7,0-5.3,0-7.9,0c-5.4,0-10.1,0-14.7-0.1c0-8.2-0.1-29.9-0.1-30.2c0-1.5,0-3.9,0.7-4.1
			C-319.1-122.6-318.9-122.6-318.7-122.6 M-318.7-124.1c-0.3,0-0.7,0.1-1.1,0.2c-1.7,0.6-1.7,3-1.7,5.5c0,0,0.1,24.9,0.1,31.6
			c6,0.1,11.2,0.1,16.2,0.1c5.4,0,10.7,0,16.6,0c2.3,0,4.6,0,7.1,0l-0.1-29.6c0-1.7,0.1-4.9-1-5.7c-0.3-0.2-0.6-0.3-0.9-0.3
			c-0.7,0-1.3,0.5-1.9,0.9c0,0-11.5,13.9-15.3,13.9c0,0,0,0,0,0c-3.7,0-13.5-13.2-13.5-13.2C-315.5-122.5-316.9-124.1-318.7-124.1
			L-318.7-124.1z"/>
	</g>
</g>
<g>
	<g>
		<path fill="#FFFFFF" d="M-322.4-114.2c2.3,0,6,2.7,9.5,5.3c4.8,3.5,10.2,7.5,15.3,7.5l0.1,0c1.4,0,16.8-5,26-8.1
			c0.4,0,0.7-0.1,1-0.1c0.8,0,1,0.2,1.3,0.5c1.1,1.4,1.5,10.6,1,20.9c-4.2,0-8.3,0-12.3,0l-8.4,0l-8.2,0c-8.4,0-17.5,0-27.4-0.1
			c0-6.1,0.3-18.7,0.3-18.9c0-0.2,0-0.4,0-0.7c0-1.5-0.1-6.1,1.5-6.4C-322.7-114.2-322.6-114.2-322.4-114.2 M-322.4-115.7
			c-0.2,0-0.4,0-0.7,0.1c-3.2,0.5-2.7,6.6-2.7,8.6c0,0-0.4,15.1-0.3,20.4c10.1,0.1,19.5,0.1,28.9,0.1c5.5,0,11,0,16.6,0
			c4.5,0,9,0,13.7,0c0,0,1.2-20.3-1.2-23.4c-0.7-0.8-1.5-1-2.5-1c-0.4,0-0.9,0-1.3,0.1c0,0-24.3,8-25.7,8c0,0-0.1,0-0.1,0
			C-306.1-102.9-316.4-115.7-322.4-115.7L-322.4-115.7z"/>
	</g>
</g>
<g>
	<g>
		<path fill="#FFFFFF" d="M-330.1-116.9c3,0,12.2,7.8,17.8,12.5c6.3,5.3,8.5,7.1,9.9,7.2c0.1,0,0.1,0,0.2,0c4,0,20.7-12.2,26-16.1
			c0.2-0.1,0.3-0.2,0.5-0.3c0.4-0.3,0.6-0.3,0.9-0.3c0.2,0,0.6,0.1,0.9,0.2c0.2,0.1,1.1,0.7,1.1,6.1c0,0.2,0,0.3,0,0.5l0,19
			c-3,0-6.1,0-9.2,0c-4,0-8.1,0-12.3,0c-4.2,0-8.3,0-12.5,0c-6.9,0-15.9,0-24.6-0.1c0-7,0.4-25.4,0.4-25.7
			C-331-116.4-330.8-116.8-330.1-116.9C-330.1-116.9-330.1-116.9-330.1-116.9 M-330.1-118.4c-0.1,0-0.2,0-0.2,0
			c-2.2,0.2-2.2,2.5-2.2,4.5c0,0-0.5,21.7-0.4,27.1c8.3,0.1,17.2,0.1,26.1,0.1c8.3,0,16.6,0,24.7,0c3.6,0,7.2,0,10.7,0l0-20.5
			c0-1.4,0.3-7-2-7.9c-0.6-0.2-1.1-0.3-1.5-0.3c-0.9,0-1.4,0.5-2.1,0.8c0,0-21.4,15.8-25.2,15.8c0,0-0.1,0-0.1,0
			C-305-98.9-324.2-118.4-330.1-118.4L-330.1-118.4z"/>
	</g>
</g>
<rect x="-319.7" y="-89.3" fill="#4DBB8D" width="36.5" height="3.6"/>
<g>
	<g>
		<path fill="#4DBB8D" d="M-137.7-122.6c1.1,0,2.3,1.3,3.5,2.8c0.3,0.3,2.6,3.5,5.4,6.7c5.6,6.3,7.9,7.1,9.3,7.1
			c4.1,0,13.4-10.8,16.3-14.3c0.3-0.2,0.6-0.5,0.8-0.5c0,0,0,0,0,0c0.4,0.6,0.4,3.1,0.4,3.9l0,0.5l0.1,28.1c-1.9,0-3.8,0-5.6,0
			c-3,0-5.9,0-8.7,0c-2.7,0-5.3,0-7.9,0c-5.4,0-10.1,0-14.7-0.1c0-8.2-0.1-29.9-0.1-30.2c0-1.5,0-3.9,0.7-4.1
			C-138.1-122.6-137.9-122.6-137.7-122.6 M-137.7-124.1c-0.3,0-0.7,0.1-1.1,0.2c-1.7,0.6-1.7,3-1.7,5.5c0,0,0.1,24.9,0.1,31.6
			c6,0.1,11.2,0.1,16.2,0.1c5.4,0,10.7,0,16.6,0c2.3,0,4.6,0,7.1,0l-0.1-29.6c0-1.7,0.1-4.9-1-5.7c-0.3-0.2-0.6-0.3-0.9-0.3
			c-0.7,0-1.3,0.5-1.9,0.9c0,0-11.5,13.9-15.3,13.9c0,0,0,0,0,0c-3.7,0-13.5-13.2-13.5-13.2C-134.5-122.5-135.9-124.1-137.7-124.1
			L-137.7-124.1z"/>
	</g>
</g>
<g>
	<g>
		<path fill="#4DBB8D" d="M-141.4-114.2c2.3,0,6,2.7,9.5,5.3c4.8,3.5,10.2,7.5,15.3,7.5l0.1,0c1.4,0,16.8-5,26-8.1
			c0.4,0,0.7-0.1,1-0.1c0.8,0,1,0.2,1.3,0.5c1.1,1.4,1.5,10.6,1,20.9c-4.2,0-8.3,0-12.3,0l-8.4,0l-8.2,0c-8.4,0-17.5,0-27.4-0.1
			c0-6.1,0.3-18.7,0.3-18.9c0-0.2,0-0.4,0-0.7c0-1.5-0.1-6.1,1.5-6.4C-141.7-114.2-141.6-114.2-141.4-114.2 M-141.4-115.7
			c-0.2,0-0.4,0-0.7,0.1c-3.2,0.5-2.7,6.6-2.7,8.6c0,0-0.4,15.1-0.3,20.4c10.1,0.1,19.5,0.1,28.9,0.1c5.5,0,11,0,16.6,0
			c4.5,0,9,0,13.7,0c0,0,1.2-20.3-1.2-23.4c-0.7-0.8-1.5-1-2.5-1c-0.4,0-0.9,0-1.3,0.1c0,0-24.3,8-25.7,8c0,0-0.1,0-0.1,0
			C-125.1-102.9-135.4-115.7-141.4-115.7L-141.4-115.7z"/>
	</g>
</g>
<g>
	<g>
		<path fill="#4DBB8D" d="M-149.1-116.9c3,0,12.2,7.8,17.8,12.5c6.3,5.3,8.5,7.1,9.9,7.2c0.1,0,0.1,0,0.2,0c4,0,20.7-12.2,26-16.1
			c0.2-0.1,0.3-0.2,0.5-0.3c0.4-0.3,0.6-0.3,0.9-0.3c0.2,0,0.6,0.1,0.9,0.2c0.2,0.1,1.1,0.7,1.1,6.1c0,0.2,0,0.3,0,0.5l0,19
			c-3,0-6.1,0-9.2,0c-4,0-8.1,0-12.3,0c-4.2,0-8.3,0-12.5,0c-6.9,0-15.9,0-24.6-0.1c0-7,0.4-25.4,0.4-25.7
			C-150-116.4-149.8-116.8-149.1-116.9C-149.1-116.9-149.1-116.9-149.1-116.9 M-149.1-118.4c-0.1,0-0.2,0-0.2,0
			c-2.2,0.2-2.2,2.5-2.2,4.5c0,0-0.5,21.7-0.4,27.1c8.3,0.1,17.2,0.1,26.1,0.1c8.3,0,16.6,0,24.7,0c3.6,0,7.2,0,10.7,0l0-20.5
			c0-1.4,0.3-7-2-7.9c-0.6-0.2-1.1-0.3-1.5-0.3c-0.9,0-1.4,0.5-2.1,0.8c0,0-21.4,15.8-25.2,15.8c0,0-0.1,0-0.1,0
			C-124-98.9-143.2-118.4-149.1-118.4L-149.1-118.4z"/>
	</g>
</g>
<rect x="-138.9" y="-89.3" fill="#FFFFFF" width="37" height="3.6"/>
<rect x="-275" y="-91.7" fill="none" width="104" height="18.5"/>
<text transform="matrix(1 0 0 1 -252.2758 -87.8148)" fill="#231F20" font-family="'MissionGothic-Bold'" font-size="5.375" letter-spacing="1">MARTA SIVERTSEN</text>
<line fill="none" stroke="#131A19" stroke-width="0.3359" stroke-miterlimit="10" x1="-262" y1="-90.7" x2="-255.6" y2="-90.7"/>
<line fill="none" stroke="#131A19" stroke-width="0.3359" stroke-miterlimit="10" x1="-190.8" y1="-90.7" x2="-184.7" y2="-90.7"/>
<rect x="-722.5" y="199.7" fill="none" width="309.6" height="55"/>
<text transform="matrix(1 0 0 1 -654.8089 211.4172)" fill="#231F20" font-family="'MissionGothic-Bold'" font-size="16" letter-spacing="4">MARTA SIVERTSEN</text>
<line fill="none" stroke="#131A19" stroke-miterlimit="10" x1="-683.8" y1="203.8" x2="-664.8" y2="203.8"/>
<line fill="none" stroke="#131A19" stroke-miterlimit="10" x1="-471.8" y1="203.8" x2="-453.8" y2="203.8"/>
<g>
	<g>
		<g>
			<path fill="#4DBB8D" d="M-1101.4,95.1c2.6,0,5.3,3.1,8.2,6.6c0.6,0.8,6.2,8.2,12.8,15.7c13.1,14.9,18.5,16.8,21.8,16.8
				c3.3,0,9-2,23.9-17.4c7.1-7.4,13.3-14.7,14.6-16.2c0.6-0.5,1.5-1.1,1.9-1.1c0,0,0,0,0.1,0c1,1.4,0.9,7.3,0.9,9.3
				c0,0.5,0,0.9,0,1.3l0.1,66.2c-4.2,0-8.6,0-13.2,0c-7.1,0-13.8,0-20.4,0c-6.3,0-12.5,0-18.7,0c-12.8,0-23.7-0.1-34.7-0.2
				c-0.1-19.3-0.3-70.4-0.3-71c0-3.6,0-9.1,1.6-9.7C-1102.3,95.2-1101.9,95.1-1101.4,95.1 M-1101.4,91.6c-0.8,0-1.7,0.1-2.5,0.5
				c-4,1.4-4,7.2-4,13c0,0,0.2,58.6,0.3,74.5c14.1,0.2,26.3,0.3,38.2,0.3c12.8,0,25.2-0.1,39.1-0.1c5.3,0,10.9,0,16.7,0l-0.1-69.7
				c0-4,0.4-11.6-2.4-13.4c-0.7-0.5-1.5-0.7-2.1-0.7c-1.6,0-3.1,1.1-4.4,2.1c0,0-27.1,32.7-36,32.7c0,0,0,0,0,0
				c-8.6,0-31.8-31.2-31.8-31.2C-1093.9,95.3-1097.3,91.6-1101.4,91.6L-1101.4,91.6z"/>
		</g>
	</g>
	<g>
		<g>
			<path fill="#4DBB8D" d="M-1110.2,114.8c5.4,0,14.1,6.4,22.4,12.5c11.3,8.3,24,17.6,36,17.6l0.3,0c3.3,0,39.6-11.8,61.2-19
				c0.8-0.1,1.6-0.2,2.3-0.2c1.8,0,2.5,0.4,3,1.1c0.5,0.6,2.8,4.7,2.8,28c0,8.6-0.3,16.9-0.5,21.3c-8.7,0-18,0-28.9,0c0,0,0,0-0.1,0
				c-6.7,0-13.2,0-19.8,0c-6.5,0-12.9,0-19.3,0c-19.8,0-41.3,0-64.6-0.2c0-14.3,0.7-44,0.7-44.4l0,0v0c0-0.5,0-1,0-1.7
				c-0.1-3.6-0.3-14.4,3.5-15C-1110.9,114.8-1110.5,114.8-1110.2,114.8 M-1110.2,111.3c-0.5,0-1,0-1.5,0.1
				c-7.5,1.3-6.4,15.6-6.5,20.2c0,0-0.8,35.6-0.7,48c23.7,0.2,45.9,0.3,68.1,0.3c12.9,0,25.9,0,39.2,0c10.5,0,21.2,0,32.2,0
				c0,0,2.8-47.9-2.8-55.1c-1.6-2-3.6-2.5-5.8-2.5c-1,0-2,0.1-3.1,0.2c0,0-57.2,18.9-60.5,18.9c-0.1,0-0.2,0-0.2,0
				C-1071.7,141.4-1095.9,111.3-1110.2,111.3L-1110.2,111.3z"/>
		</g>
	</g>
	<g>
		<g>
			<path fill="#4DBB8D" d="M-1128.1,108.6c7.1,0,28.8,18.4,41.8,29.4c14.9,12.6,19.9,16.7,23.3,16.9c0.1,0,0.3,0,0.5,0
				c2,0,6.7,0,35-19.3c12.5-8.5,24.3-17.2,26.1-18.5c0.4-0.2,0.8-0.4,1.1-0.6c1-0.6,1.5-0.8,2.1-0.8c0.6,0,1.3,0.2,2.2,0.5
				c0.4,0.2,2.7,1.7,2.5,14.3c0,0.4,0,0.8,0,1.1l0,44.7c-6.5,0-13.7,0-21.7,0c-9.5,0-19.2,0-28.8,0c-9.8,0-19.6,0-29.4,0
				c-16.3,0-37.4,0-57.9-0.2c0-16.4,1-59.8,1-60.3l0,0v0c0-6.3,0.6-6.9,2-7.1C-1128.3,108.6-1128.2,108.6-1128.1,108.6 M-1128.1,105
				c-0.2,0-0.4,0-0.5,0c-5.2,0.5-5.2,5.9-5.2,10.6c0,0-1.1,51.2-1,63.9c19.6,0.2,40.4,0.2,61.4,0.2c19.5,0,39.1,0,58.2,0
				c8.5,0,17,0,25.2,0l0-48.3c0-3.2,0.7-16.4-4.7-18.6c-1.4-0.6-2.6-0.8-3.5-0.8c-2.2,0-3.4,1.1-5,1.9c0,0-50.3,37.3-59.2,37.3
				c-0.1,0-0.1,0-0.2,0C-1069.1,150.9-1114.3,105-1128.1,105L-1128.1,105z"/>
		</g>
	</g>
	<rect x="-1104.2" y="173.6" fill="#FFFFFF" width="87" height="8.4"/>
</g>
<rect x="-1137.2" y="227.6" fill="none" width="160.1" height="108.5"/>
<text transform="matrix(1 0 0 1 -1137.2397 236.3546)"><tspan x="0" y="0" fill="#231F20" font-family="'MissionGothic-Bold'" font-size="12">Hey</tspan><tspan x="21.3" y="0" fill="#231F20" font-family="'MissionGothic-Bold'" font-size="12"> </tspan><tspan x="24.3" y="0" fill="#231F20" font-family="'MissionGothic-Bold'" font-size="12">you</tspan><tspan x="45.4" y="0" fill="#231F20" font-family="'MissionGothic-Bold'" font-size="12"> </tspan><tspan x="48.4" y="0" fill="#231F20" font-family="'MissionGothic-Bold'" font-size="12">made</tspan><tspan x="79.1" y="0" fill="#231F20" font-family="'MissionGothic-Bold'" font-size="12"> </tspan><tspan x="82.1" y="0" fill="#231F20" font-family="'MissionGothic-Bold'" font-size="12">it.</tspan><tspan x="94.8" y="0" fill="#231F20" font-family="'MissionGothic-Bold'" font-size="12"> </tspan><tspan x="97.9" y="0" fill="#231F20" font-family="'MissionGothic-Bold'" font-size="12">All</tspan><tspan x="112.2" y="0" fill="#231F20" font-family="'MissionGothic-Bold'" font-size="12"> </tspan><tspan x="115.2" y="0" fill="#231F20" font-family="'MissionGothic-Bold'" font-size="12">designs </tspan><tspan x="0" y="18" fill="#231F20" font-family="'MissionGothic-Bold'" font-size="12">by</tspan><tspan x="13.9" y="18" fill="#231F20" font-family="'MissionGothic-Bold'" font-size="12" letter-spacing="1"> </tspan><tspan x="18.8" y="18" fill="#231F20" font-family="'MissionGothic-Bold'" font-size="12">me.</tspan><tspan x="39.2" y="18" fill="#231F20" font-family="'MissionGothic-Bold'" font-size="12" letter-spacing="1"> </tspan><tspan x="44.1" y="18" fill="#231F20" font-family="'MissionGothic-Bold'" font-size="12">Take</tspan><tspan x="70.3" y="18" fill="#231F20" font-family="'MissionGothic-Bold'" font-size="12" letter-spacing="1"> </tspan><tspan x="75.2" y="18" fill="#231F20" font-family="'MissionGothic-Bold'" font-size="12">a</tspan><tspan x="82" y="18" fill="#231F20" font-family="'MissionGothic-Bold'" font-size="12" letter-spacing="1"> </tspan><tspan x="86.9" y="18" fill="#231F20" font-family="'MissionGothic-Bold'" font-size="12">look</tspan><tspan x="111.5" y="18" fill="#231F20" font-family="'MissionGothic-Bold'" font-size="12" letter-spacing="1"> </tspan><tspan x="116.4" y="18" fill="#231F20" font-family="'MissionGothic-Bold'" font-size="12">around. </tspan><tspan x="0" y="36" fill="#231F20" font-family="'MissionGothic-Bold'" font-size="12">Reach</tspan><tspan x="34.3" y="36" fill="#231F20" font-family="'MissionGothic-Bold'" font-size="12" letter-spacing="2"> </tspan><tspan x="40.2" y="36" fill="#231F20" font-family="'MissionGothic-Bold'" font-size="12">out</tspan><tspan x="59.6" y="36" fill="#231F20" font-family="'MissionGothic-Bold'" font-size="12" letter-spacing="2"> </tspan><tspan x="65.5" y="36" fill="#231F20" font-family="'MissionGothic-Bold'" font-size="12">lorem</tspan><tspan x="98.2" y="36" fill="#231F20" font-family="'MissionGothic-Bold'" font-size="12" letter-spacing="2"> </tspan><tspan x="104.1" y="36" fill="#231F20" font-family="'MissionGothic-Bold'" font-size="12">ipsum</tspan><tspan x="139.1" y="36" fill="#231F20" font-family="'MissionGothic-Bold'" font-size="12" letter-spacing="2"> </tspan><tspan x="145" y="36" fill="#231F20" font-family="'MissionGothic-Bold'" font-size="12">sit </tspan><tspan x="0" y="54" fill="#231F20" font-family="'MissionGothic-Bold'" font-size="12">dolor</tspan><tspan x="29.9" y="54" fill="#231F20" font-family="'MissionGothic-Bold'" font-size="12" letter-spacing="1"> </tspan><tspan x="34.6" y="54" fill="#231F20" font-family="'MissionGothic-Bold'" font-size="12">amet</tspan><tspan x="63.3" y="54" fill="#231F20" font-family="'MissionGothic-Bold'" font-size="12" letter-spacing="1"> </tspan><tspan x="67.9" y="54" fill="#231F20" font-family="'MissionGothic-Bold'" font-size="12">lorem</tspan><tspan x="100.6" y="54" fill="#231F20" font-family="'MissionGothic-Bold'" font-size="12" letter-spacing="1"> </tspan><tspan x="105.3" y="54" fill="#231F20" font-family="'MissionGothic-Bold'" font-size="12">ipsum</tspan><tspan x="140.4" y="54" fill="#231F20" font-family="'MissionGothic-Bold'" font-size="12" letter-spacing="1"> </tspan><tspan x="145" y="54" fill="#231F20" font-family="'MissionGothic-Bold'" font-size="12">sit </tspan><tspan x="0" y="72" fill="#231F20" font-family="'MissionGothic-Bold'" font-size="12">dolor</tspan><tspan x="29.9" y="72" fill="#231F20" font-family="'MissionGothic-Bold'" font-size="12" letter-spacing="1"> </tspan><tspan x="34.6" y="72" fill="#231F20" font-family="'MissionGothic-Bold'" font-size="12">amet</tspan><tspan x="63.3" y="72" fill="#231F20" font-family="'MissionGothic-Bold'" font-size="12" letter-spacing="1"> </tspan><tspan x="67.9" y="72" fill="#231F20" font-family="'MissionGothic-Bold'" font-size="12">lorem</tspan><tspan x="100.6" y="72" fill="#231F20" font-family="'MissionGothic-Bold'" font-size="12" letter-spacing="1"> </tspan><tspan x="105.3" y="72" fill="#231F20" font-family="'MissionGothic-Bold'" font-size="12">ipsum</tspan><tspan x="140.4" y="72" fill="#231F20" font-family="'MissionGothic-Bold'" font-size="12" letter-spacing="1"> </tspan><tspan x="145" y="72" fill="#231F20" font-family="'MissionGothic-Bold'" font-size="12">sit </tspan><tspan x="0" y="90" fill="#231F20" font-family="'MissionGothic-Bold'" font-size="12">color amet.</tspan></text>
<rect x="-1164.2" y="193.5" fill="#231F20" width="212" height="8.8"/>
<rect x="-224" y="33.2" fill="none" width="218" height="105.5"/>
<text transform="matrix(1 0 0 1 -224.0373 50.7457)"><tspan x="0" y="0" fill="#231F20" font-family="'MissionGothic-Bold'" font-size="24" letter-spacing="6">MARTA  </tspan><tspan x="0" y="28.8" fill="#231F20" font-family="'MissionGothic-Bold'" font-size="24" letter-spacing="6">SIVERTSEN</tspan></text>
<circle fill="#4DBB8D" cx="-306.6" cy="59.3" r="57.3"/>
<g>
	<g>
		<path fill="#FFFFFF" d="M-324.7,40.8c1.1,0,2.3,1.3,3.5,2.8c0.3,0.4,2.6,3.5,5.4,6.7c5.6,6.3,7.9,7.1,9.3,7.1
			c4.1,0,13.4-10.8,16.3-14.3c0.3-0.2,0.6-0.5,0.8-0.5c0,0,0,0,0,0c0.4,0.6,0.4,3.1,0.4,3.9l0,0.5l0.1,28.1c-1.9,0-3.8,0-5.6,0
			c-3,0-5.9,0-8.7,0c-2.7,0-5.3,0-7.9,0c-5.4,0-10.1,0-14.8-0.1c0-8.2-0.1-29.9-0.1-30.2c0-1.5,0-3.9,0.7-4.1
			C-325.1,40.8-324.9,40.8-324.7,40.8 M-324.7,39.3c-0.3,0-0.7,0.1-1.1,0.2c-1.7,0.6-1.7,3-1.7,5.5c0,0,0.1,24.9,0.1,31.6
			c6,0.1,11.2,0.1,16.2,0.1c5.4,0,10.7,0,16.6,0c2.3,0,4.6,0,7.1,0l-0.1-29.6c0-1.7,0.1-4.9-1-5.7c-0.3-0.2-0.6-0.3-0.9-0.3
			c-0.7,0-1.3,0.5-1.9,0.9c0,0-11.5,13.9-15.3,13.9c0,0,0,0,0,0c-3.7,0-13.5-13.2-13.5-13.2C-321.5,40.9-322.9,39.3-324.7,39.3
			L-324.7,39.3z"/>
	</g>
</g>
<g>
	<g>
		<path fill="#FFFFFF" d="M-328.4,49.2c2.3,0,6,2.7,9.5,5.3c4.8,3.5,10.2,7.5,15.3,7.5l0.1,0c1.4,0,16.8-5,26-8.1
			c0.4,0,0.7-0.1,1-0.1c0.8,0,1,0.2,1.3,0.5c1.1,1.4,1.5,10.6,1,20.9c-4.2,0-8.3,0-12.3,0l-8.4,0l-8.2,0c-8.4,0-17.5,0-27.4-0.1
			c0-6.1,0.3-18.7,0.3-18.9c0-0.2,0-0.4,0-0.7c0-1.5-0.1-6.1,1.5-6.4C-328.7,49.2-328.6,49.2-328.4,49.2 M-328.4,47.7
			c-0.2,0-0.4,0-0.7,0.1c-3.2,0.5-2.7,6.6-2.7,8.6c0,0-0.4,15.1-0.3,20.4c10.1,0.1,19.5,0.1,28.9,0.1c5.5,0,11,0,16.6,0
			c4.5,0,9,0,13.7,0c0,0,1.2-20.3-1.2-23.4c-0.7-0.8-1.5-1-2.5-1c-0.4,0-0.9,0-1.3,0.1c0,0-24.3,8-25.7,8c0,0-0.1,0-0.1,0
			C-312.1,60.5-322.4,47.7-328.4,47.7L-328.4,47.7z"/>
	</g>
</g>
<g>
	<g>
		<path fill="#FFFFFF" d="M-336.1,46.5c3,0,12.2,7.8,17.8,12.5c6.3,5.3,8.5,7.1,9.9,7.2c0.1,0,0.1,0,0.2,0c4,0,20.7-12.2,26-16.1
			c0.2-0.1,0.3-0.2,0.5-0.3c0.4-0.3,0.6-0.3,0.9-0.3c0.2,0,0.6,0.1,0.9,0.2c0.2,0.1,1.1,0.7,1.1,6.1c0,0.2,0,0.3,0,0.5l0,19
			c-3,0-6.1,0-9.2,0c-4,0-8.1,0-12.3,0c-4.2,0-8.3,0-12.5,0c-6.9,0-15.9,0-24.6-0.1c0-7,0.4-25.4,0.4-25.7
			C-337,47-336.8,46.6-336.1,46.5C-336.1,46.5-336.1,46.5-336.1,46.5 M-336.1,45c-0.1,0-0.2,0-0.2,0c-2.2,0.2-2.2,2.5-2.2,4.5
			c0,0-0.5,21.7-0.4,27.1c8.3,0.1,17.2,0.1,26.1,0.1c8.3,0,16.6,0,24.7,0c3.6,0,7.2,0,10.7,0l0-20.5c0-1.4,0.3-7-2-7.9
			c-0.6-0.2-1.1-0.3-1.5-0.3c-0.9,0-1.4,0.5-2.1,0.8c0,0-21.4,15.8-25.2,15.8c0,0-0.1,0-0.1,0C-311,64.5-330.2,45-336.1,45
			L-336.1,45z"/>
	</g>
</g>
<rect x="-325.7" y="74.1" fill="#4DBB8D" width="36.5" height="3.6"/>
<circle fill="#4DBB8D" cx="45.6" cy="45.6" r="43.6"/>
<g>
	<g>
		<path fill="#FFFFFF" d="M31.9,31.5c0.8,0,1.7,1,2.6,2.1c1.9,2.5,8.1,10.5,11.2,10.5c3.1,0,10.2-8.2,12.4-10.9
			c0.2-0.1,0.5-0.4,0.6-0.4c0,0,0,0,0,0c0.3,0.4,0.3,2.4,0.3,3l0,0.4l0,21.4c-1.5,0-2.9,0-4.3,0c-2.3,0-4.5,0-6.6,0c-2,0-4,0-6,0
			c-4.1,0-7.6,0-11.2-0.1c0-6.2-0.1-22.7-0.1-22.9c0-1.2,0-2.9,0.5-3.1C31.6,31.5,31.7,31.5,31.9,31.5 M31.9,30.4
			c-0.3,0-0.5,0-0.8,0.1c-1.3,0.5-1.3,2.3-1.3,4.2c0,0,0.1,18.9,0.1,24c4.6,0.1,8.5,0.1,12.3,0.1c4.1,0,8.1,0,12.6,0
			c1.7,0,3.5,0,5.4,0l0-22.5c0-1.3,0.1-3.7-0.8-4.3c-0.2-0.2-0.5-0.2-0.7-0.2c-0.5,0-1,0.4-1.4,0.7c0,0-8.8,10.5-11.6,10.6
			c0,0,0,0,0,0c-2.8,0-10.3-10.1-10.3-10.1C34.3,31.6,33.2,30.4,31.9,30.4L31.9,30.4z"/>
	</g>
</g>
<g>
	<g>
		<path fill="#FFFFFF" d="M29,37.9c1.7,0,4.5,2.1,7.2,4c3.6,2.7,7.8,5.7,11.6,5.7l0.1,0c1.1,0,12.8-3.8,19.8-6.1c0.3,0,0.5,0,0.7,0
			c0.6,0,0.8,0.1,1,0.4c0.9,1.2,1.1,8.9,0.7,15.9c-3.2,0-6.3,0-9.3,0l-6.4,0l-6.2,0c-6.4,0-13.3,0-20.9-0.1c0-4.6,0.2-14.2,0.2-14.4
			c0-0.2,0-0.3,0-0.5c0-1.1-0.1-4.6,1.1-4.9C28.8,37.9,28.9,37.9,29,37.9 M29,36.7c-0.2,0-0.3,0-0.5,0c-2.4,0.4-2.1,5-2.1,6.5
			c0,0-0.3,11.5-0.2,15.5c7.7,0.1,14.8,0.1,22,0.1c4.2,0,8.4,0,12.7,0c3.4,0,6.8,0,10.4,0c0,0,0.9-15.5-0.9-17.8
			c-0.5-0.6-1.2-0.8-1.9-0.8c-0.3,0-0.7,0-1,0.1c0,0-18.5,6.1-19.5,6.1c0,0-0.1,0-0.1,0C41.5,46.4,33.7,36.7,29,36.7L29,36.7z"/>
	</g>
</g>
<g>
	<g>
		<path fill="#FFFFFF" d="M23.2,35.8c2.3,0,9.3,5.9,13.5,9.5c4.8,4.1,6.4,5.4,7.5,5.5c0,0,0.1,0,0.2,0c3,0,15.8-9.3,19.7-12.2
			c0.1-0.1,0.2-0.1,0.4-0.2c0.3-0.2,0.5-0.3,0.7-0.3c0.2,0,0.4,0.1,0.7,0.2c0.1,0.1,0.9,0.6,0.8,4.6l0,0.3l0,14.4c-2.3,0-4.6,0-7,0
			c-3.1,0-6.2,0-9.3,0c-3.2,0-6.3,0-9.5,0c-5.3,0-12.1,0-18.7-0.1c0-5.3,0.3-19.3,0.3-19.5C22.5,36.2,22.7,35.9,23.2,35.8
			C23.2,35.8,23.2,35.8,23.2,35.8 M23.2,34.7c-0.1,0-0.1,0-0.2,0c-1.7,0.2-1.7,1.9-1.7,3.4c0,0-0.4,16.5-0.3,20.6
			c6.3,0.1,13,0.1,19.8,0.1c6.3,0,12.6,0,18.8,0c2.8,0,5.5,0,8.1,0l0-15.6c0-1,0.2-5.3-1.5-6c-0.5-0.2-0.8-0.3-1.1-0.3
			c-0.7,0-1.1,0.4-1.6,0.6c0,0-16.2,12-19.1,12c0,0,0,0-0.1,0C42.3,49.5,27.7,34.7,23.2,34.7L23.2,34.7z"/>
	</g>
</g>
<rect x="31.2" y="56.8" fill="#4DBB8D" width="27.8" height="2.7"/>
</svg>
