<?xml version="1.0" encoding="UTF-8"?>
<svg width="70px" height="60px" viewBox="0 0 70 60" version="1.1" xmlns="http://www.w3.org/2000/svg" xmlns:xlink="http://www.w3.org/1999/xlink">
    <!-- Generator: Sketch 49 (51002) - http://www.bohemiancoding.com/sketch -->
    <title>quotations_70w</title>
    <desc>Created with Sketch.</desc>
    <defs></defs>
    <g id="quotations_70w" stroke="none" stroke-width="1" fill="none" fill-rule="evenodd">
        <path d="M30.125,8 L30.125,15.5 C26.2083138,15.5 22.5625169,16.7604041 19.1875,19.28125 C15.8124831,21.8020959 14.125,24.8124825 14.125,28.3125 C14.125,30.3958437 14.958325,31.4375 16.625,31.4375 C17.0000019,31.4375 17.7499944,31.2916681 18.875,31 C20.0416725,30.7499988 20.9791631,30.625 21.6875,30.625 C23.9791781,30.625 26.1354066,31.5520741 28.15625,33.40625 C30.1770934,35.2604259 31.1875,37.8124837 31.1875,41.0625 C31.1875,44.2291825 30.1458438,46.9479053 28.0625,49.21875 C25.9791563,51.4895947 23.1250181,52.625 19.5,52.625 C15.166645,52.625 11.66668,50.9895997 9,47.71875 C6.33332,44.4479003 5,39.8958625 5,34.0625 C5,26.0207931 7.44789219,19.7187728 12.34375,15.15625 C17.2396078,10.5937272 23.1666319,8.20833437 30.125,8 Z M64.4375,8 L64.4375,15.5 C60.7291481,15.5 57.1354341,16.7395709 53.65625,19.21875 C50.1770659,21.6979291 48.4375,24.7291488 48.4375,28.3125 C48.4375,30.3958437 49.270825,31.4375 50.9375,31.4375 C51.3125019,31.4375 52.0624944,31.2916681 53.1875,31 C54.3541725,30.7499988 55.2916631,30.625 56,30.625 C58.4166788,30.625 60.6041569,31.5833237 62.5625,33.5 C64.5208431,35.4166763 65.5,37.9374844 65.5,41.0625 C65.5,44.2291825 64.4583438,46.9479053 62.375,49.21875 C60.2916563,51.4895947 57.4375181,52.625 53.8125,52.625 C49.479145,52.625 45.97918,50.9895997 43.3125,47.71875 C40.64582,44.4479003 39.3125,39.8958625 39.3125,34.0625 C39.3125,26.0207931 41.7603922,19.7187728 46.65625,15.15625 C51.5521078,10.5937272 57.4791319,8.20833437 64.4375,8 Z" id="P-Copy-11" fill="#4CC094"></path>
    </g>
</svg>