<?xml version="1.0" encoding="UTF-8"?>
<svg width="80px" height="41px" viewBox="0 0 80 41" version="1.1" xmlns="http://www.w3.org/2000/svg" xmlns:xlink="http://www.w3.org/1999/xlink">
    <!-- Generator: Sketch 49 (51002) - http://www.bohemiancoding.com/sketch -->
    <title>touch_up_label</title>
    <desc>Created with Sketch.</desc>
    <defs></defs>
    <g id="touch_up_label" stroke="none" stroke-width="1" fill="none" fill-rule="evenodd">
        <g id="Group">
            <rect id="Rectangle-3" fill="#FFFFFF" x="0" y="0" width="80" height="41"></rect>
            <path d="M0,0 L80,0 L80,41 L0,41 L0,0 Z M21.784,20.936 L20.44,20.936 L20.44,17.096 L21.816,17.096 C22.6106706,17.096 23.2013314,17.2533318 23.588,17.568 C23.9746686,17.8826682 24.168,18.3333304 24.168,18.92 C24.168,19.2133348 24.1200005,19.4826654 24.024,19.728 C23.9279995,19.9733346 23.7826676,20.1853324 23.588,20.364 C23.3933324,20.5426676 23.1453348,20.6826662 22.844,20.784 C22.5426652,20.8853338 22.1893354,20.936 21.784,20.936 Z M27.32,27 L24.424,22.728 C24.3279995,22.5786659 24.2213339,22.4493339 24.104,22.34 C23.9866661,22.2306661 23.8586674,22.1360004 23.72,22.056 C24.1253354,21.9333327 24.4866651,21.7653344 24.804,21.552 C25.1213349,21.3386656 25.3879989,21.0906681 25.604,20.808 C25.8200011,20.5253319 25.9853328,20.2106684 26.1,19.864 C26.2146672,19.5173316 26.272,19.1493353 26.272,18.76 C26.272,18.2693309 26.1866675,17.820002 26.016,17.412 C25.8453325,17.003998 25.5800018,16.6533348 25.22,16.36 C24.8599982,16.0666652 24.3986695,15.8386675 23.836,15.676 C23.2733305,15.5133325 22.6000039,15.432 21.816,15.432 L18.288,15.432 L18.288,27 L20.44,27 L20.44,22.48 L21.36,22.48 C21.5733344,22.48 21.7346661,22.509333 21.844,22.568 C21.9533339,22.626667 22.0533329,22.7253326 22.144,22.864 L24.576,26.568 C24.7413342,26.8560014 25.0079982,27 25.376,27 L27.32,27 Z M33.552,21.952 L29.824,21.952 C29.9146671,21.3546637 30.1239984,20.893335 30.452,20.568 C30.7800016,20.242665 31.2293305,20.08 31.8,20.08 C32.0933348,20.08 32.3506656,20.1293328 32.572,20.228 C32.7933344,20.3266672 32.9759993,20.4613325 33.12,20.632 C33.2640007,20.8026675 33.3719996,21.0013322 33.444,21.228 C33.5160004,21.4546678 33.552,21.6959987 33.552,21.952 Z M29.784,23.144 L34.864,23.144 C35.0453342,23.144 35.1679997,23.0920005 35.232,22.988 C35.2960003,22.8839995 35.328,22.6826682 35.328,22.384 C35.328,21.791997 35.2386676,21.2653356 35.06,20.804 C34.8813324,20.3426644 34.6346682,19.9533349 34.32,19.636 C34.0053318,19.3186651 33.6293355,19.0773342 33.192,18.912 C32.7546645,18.7466658 32.2773359,18.664 31.76,18.664 C31.1466636,18.664 30.5960024,18.7706656 30.108,18.984 C29.6199976,19.1973344 29.2066684,19.4866648 28.868,19.852 C28.5293316,20.2173352 28.2693342,20.6466642 28.088,21.14 C27.9066658,21.6333358 27.816,22.1599972 27.816,22.72 C27.816,23.4400036 27.919999,24.0733306 28.128,24.62 C28.336001,25.1666694 28.6213315,25.6253315 28.984,25.996 C29.3466685,26.3666685 29.7733309,26.6466657 30.264,26.836 C30.7546691,27.0253343 31.2853305,27.12 31.856,27.12 C32.1440014,27.12 32.4413318,27.0986669 32.748,27.056 C33.0546682,27.0133331 33.3559985,26.9400005 33.652,26.836 C33.9480015,26.7319995 34.2319986,26.5933342 34.504,26.42 C34.7760014,26.2466658 35.0213322,26.0320013 35.24,25.776 L34.672,25.056 C34.5919996,24.9333327 34.4693342,24.872 34.304,24.872 C34.1813327,24.872 34.0546673,24.909333 33.924,24.984 C33.7933327,25.058667 33.6413342,25.1413329 33.468,25.232 C33.2946658,25.3226671 33.0920012,25.405333 32.86,25.48 C32.6279988,25.554667 32.3520016,25.592 32.032,25.592 C31.7119984,25.592 31.4200013,25.5426672 31.156,25.444 C30.8919987,25.3453328 30.664001,25.196001 30.472,24.996 C30.279999,24.795999 30.1253339,24.5426682 30.008,24.236 C29.8906661,23.9293318 29.8160002,23.5653354 29.784,23.144 Z M41.816,20.392 L42.264,19.68 C41.9546651,19.3759985 41.5680023,19.1306676 41.104,18.944 C40.6399977,18.7573324 40.1253362,18.664 39.56,18.664 C39.0533308,18.664 38.6066686,18.7319993 38.22,18.868 C37.8333314,19.0040007 37.510668,19.1853322 37.252,19.412 C36.993332,19.6386678 36.797334,19.9039985 36.664,20.208 C36.530666,20.5120015 36.464,20.8319983 36.464,21.168 C36.464,21.5306685 36.5213328,21.8399987 36.636,22.096 C36.7506672,22.3520013 36.9026657,22.5679991 37.092,22.744 C37.2813343,22.9200009 37.4973321,23.0653328 37.74,23.18 C37.9826679,23.2946672 38.2306654,23.3946662 38.484,23.48 C38.7373346,23.5653338 38.9853321,23.6439996 39.228,23.716 C39.4706679,23.7880004 39.6866657,23.8693329 39.876,23.96 C40.0653343,24.0506671 40.2173328,24.1573327 40.332,24.28 C40.4466672,24.4026673 40.504,24.559999 40.504,24.752 C40.504,24.8800006 40.4786669,25.0039994 40.428,25.124 C40.3773331,25.2440006 40.2973339,25.3493329 40.188,25.44 C40.0786661,25.5306671 39.9400008,25.6039997 39.772,25.66 C39.6039992,25.7160003 39.4026678,25.744 39.168,25.744 C38.8693318,25.744 38.6226676,25.7093337 38.428,25.64 C38.2333324,25.5706663 38.0640007,25.4960004 37.92,25.416 C37.7759993,25.3359996 37.6493339,25.2613337 37.54,25.192 C37.4306661,25.1226663 37.3146673,25.088 37.192,25.088 C37.0693327,25.088 36.9680004,25.1119998 36.888,25.16 C36.8079996,25.2080002 36.738667,25.2773329 36.68,25.368 L36.224,26.12 C36.3840008,26.2640007 36.5693323,26.3973327 36.78,26.52 C36.9906677,26.6426673 37.2199988,26.7493329 37.468,26.84 C37.7160012,26.9306671 37.9746653,27.0013331 38.244,27.052 C38.5133347,27.1026669 38.7893319,27.128 39.072,27.128 C39.605336,27.128 40.075998,27.0600007 40.484,26.924 C40.892002,26.7879993 41.2346653,26.5986679 41.512,26.356 C41.7893347,26.1133321 41.998666,25.825335 42.14,25.492 C42.281334,25.158665 42.352,24.7946686 42.352,24.4 C42.352,24.0693317 42.2946672,23.7866678 42.18,23.552 C42.0653328,23.3173322 41.9133343,23.1160008 41.724,22.948 C41.5346657,22.7799992 41.3200012,22.6413339 41.08,22.532 C40.8399988,22.4226661 40.5960012,22.3253338 40.348,22.24 C40.0999988,22.1546662 39.8560012,22.0760004 39.616,22.004 C39.3759988,21.9319996 39.1613343,21.8506671 38.972,21.76 C38.7826657,21.6693329 38.6306672,21.5640006 38.516,21.444 C38.4013328,21.3239994 38.344,21.1760009 38.344,21 C38.344,20.733332 38.4546656,20.5173342 38.676,20.352 C38.8973344,20.1866658 39.2026647,20.104 39.592,20.104 C39.8426679,20.104 40.0599991,20.1306664 40.244,20.184 C40.4280009,20.2373336 40.5919993,20.297333 40.736,20.364 C40.8800007,20.430667 41.0066661,20.4906664 41.116,20.544 C41.2253339,20.5973336 41.3279995,20.624 41.424,20.624 C41.5146671,20.624 41.589333,20.6066668 41.648,20.572 C41.706667,20.5373332 41.7626664,20.4773338 41.816,20.392 Z M50.912,18.792 L48.936,18.792 L48.936,24.728 C48.669332,24.994668 48.3866682,25.2039992 48.088,25.356 C47.7893318,25.5080008 47.469335,25.584 47.128,25.584 C46.6639977,25.584 46.3160012,25.446668 46.084,25.172 C45.8519988,24.897332 45.736,24.5093358 45.736,24.008 L45.736,18.792 L43.76,18.792 L43.76,24.008 C43.76,24.466669 43.8199994,24.8866648 43.94,25.268 C44.0600006,25.6493352 44.2373322,25.9786653 44.472,26.256 C44.7066678,26.5333347 44.9959983,26.7479992 45.34,26.9 C45.6840017,27.0520008 46.0799978,27.128 46.528,27.128 C47.0773361,27.128 47.5546646,27.0226677 47.96,26.812 C48.3653354,26.6013323 48.7359983,26.325335 49.072,25.984 L49.208,26.64 C49.2773337,26.8800012 49.4426654,27 49.704,27 L50.912,27 L50.912,18.792 Z M54.864,15.112 L52.888,15.112 L52.888,27 L54.864,27 L54.864,15.112 Z M59.576,27.128 C59.976002,27.128 60.3626648,27.0666673 60.736,26.944 C61.1093352,26.8213327 61.4399986,26.6400012 61.728,26.4 L61.136,25.44 C61.0933331,25.381333 61.0533335,25.3373335 61.016,25.308 C60.9786665,25.2786665 60.930667,25.264 60.872,25.264 C60.8239998,25.264 60.7760002,25.2786665 60.728,25.308 C60.6799998,25.3373335 60.6253336,25.3679998 60.564,25.4 C60.5026664,25.4320002 60.4306671,25.4626665 60.348,25.492 C60.2653329,25.5213335 60.1626673,25.536 60.04,25.536 C59.8213322,25.536 59.649334,25.4640007 59.524,25.32 C59.398666,25.1759993 59.336,24.9760013 59.336,24.72 L59.336,20.272 L61.528,20.272 L61.528,18.864 L59.336,18.864 L59.336,16.28 L58.312,16.28 C58.1946661,16.28 58.098667,16.309333 58.024,16.368 C57.949333,16.426667 57.8986668,16.5093328 57.872,16.616 L57.456,18.856 L56.136,19.072 L56.136,19.856 C56.136,19.9946674 56.173333,20.0986663 56.248,20.168 C56.322667,20.2373337 56.4133328,20.272 56.52,20.272 L57.36,20.272 L57.36,24.856 C57.36,25.5653369 57.5506648,26.1213313 57.932,26.524 C58.3133352,26.9266687 58.8613298,27.128 59.576,27.128 Z" id="Combined-Shape" fill="#4DBC8E"></path>
        </g>
    </g>
</svg>